<svg width="22" height="21" viewBox="0 0 22 21" fill="none" xmlns="http://www.w3.org/2000/svg">
<path d="M11 -0.00100708C16.524 -0.00100708 21.002 4.47699 21.002 10.001C21.002 15.524 16.524 20.002 11 20.002C5.476 20.002 0.998001 15.524 0.998001 10.001C0.998001 4.47699 5.476 -0.00100708 11 -0.00100708ZM11 1.49899C9.87581 1.4868 8.76036 1.69769 7.71822 2.11946C6.67608 2.54124 5.72793 3.16551 4.92866 3.95616C4.12939 4.74681 3.49487 5.68813 3.06182 6.72563C2.62877 7.76314 2.4058 8.87624 2.4058 10.0005C2.4058 11.1248 2.62877 12.2378 3.06182 13.2754C3.49487 14.3129 4.12939 15.2542 4.92866 16.0448C5.72793 16.8355 6.67608 17.4597 7.71822 17.8815C8.76036 18.3033 9.87581 18.5142 11 18.502C13.232 18.4678 15.361 17.5571 16.9274 15.9665C18.4937 14.376 19.3716 12.2333 19.3716 10.001C19.3716 7.76871 18.4937 5.62597 16.9274 4.03545C15.361 2.44493 13.232 1.53423 11 1.49999V1.49899ZM7.462 12.784C7.88275 13.32 8.41996 13.7532 9.03293 14.0509C9.64591 14.3485 10.3186 14.5028 11 14.502C11.6806 14.5028 12.3524 14.3489 12.9648 14.0519C13.5772 13.755 14.1141 13.3228 14.535 12.788C14.6583 12.6319 14.8386 12.5312 15.0362 12.5081C15.2337 12.4849 15.4324 12.5412 15.5885 12.6645C15.7446 12.7878 15.8453 12.9681 15.8684 13.1657C15.8916 13.3632 15.8353 13.5619 15.712 13.718C15.1507 14.4306 14.435 15.0064 13.6187 15.4021C12.8025 15.7977 11.9071 16.0028 11 16.002C10.0918 16.0027 9.19523 15.797 8.37821 15.4002C7.5612 15.0035 6.84508 14.4262 6.284 13.712C6.1662 13.5553 6.11439 13.3588 6.13968 13.1644C6.16497 12.9701 6.26533 12.7933 6.41929 12.6721C6.57326 12.5508 6.76858 12.4946 6.96346 12.5155C7.15834 12.5364 7.33729 12.6328 7.462 12.784ZM8 6.74999C8.16706 6.74527 8.33337 6.77409 8.4891 6.83476C8.64483 6.89542 8.78681 6.9867 8.90665 7.1032C9.02648 7.21969 9.12174 7.35904 9.18679 7.51298C9.25184 7.66693 9.28535 7.83237 9.28535 7.99949C9.28535 8.16662 9.25184 8.33205 9.18679 8.486C9.12174 8.63995 9.02648 8.77929 8.90665 8.89579C8.78681 9.01228 8.64483 9.10356 8.4891 9.16423C8.33337 9.2249 8.16706 9.25372 8 9.24899C7.67473 9.23979 7.36587 9.10411 7.13906 8.87079C6.91224 8.63747 6.78535 8.32489 6.78535 7.99949C6.78535 7.67409 6.91224 7.36152 7.13906 7.1282C7.36587 6.89488 7.67473 6.7592 8 6.74999ZM14 6.74999C14.1671 6.74527 14.3334 6.77409 14.4891 6.83476C14.6448 6.89542 14.7868 6.9867 14.9066 7.1032C15.0265 7.21969 15.1217 7.35904 15.1868 7.51298C15.2518 7.66693 15.2854 7.83237 15.2854 7.99949C15.2854 8.16662 15.2518 8.33205 15.1868 8.486C15.1217 8.63995 15.0265 8.77929 14.9066 8.89579C14.7868 9.01228 14.6448 9.10356 14.4891 9.16423C14.3334 9.2249 14.1671 9.25372 14 9.24899C13.6747 9.23979 13.3659 9.10411 13.1391 8.87079C12.9122 8.63747 12.7854 8.32489 12.7854 7.99949C12.7854 7.67409 12.9122 7.36152 13.1391 7.1282C13.3659 6.89488 13.6747 6.7592 14 6.74999Z" fill="#707991"/>
</svg>
